HIERARCHY
ROOT Hips
{
	OFFSET 0.000000 0.000000 0.000000 
	CHANNELS 6 Xposition Yposition Zposition Zrotation Yrotation Xrotation
	JOINT LeftUpLeg
	{
		OFFSET 1.363060 -1.794630 0.839290 
		CHANNELS 3 Zrotation Yrotation Xrotation
		JOINT LeftLeg
		{
			OFFSET 2.448110 -6.726130 0.000000 
			CHANNELS 3 Zrotation Yrotation Xrotation
			JOINT LeftFoot
			{
				OFFSET 2.562200 -7.039590 0.000000 
				CHANNELS 3 Zrotation Yrotation Xrotation
				JOINT LeftToeBase
				{
					OFFSET 0.157640 -0.433110 2.322550 
					CHANNELS 3 Zrotation Yrotation Xrotation
					End Site
					{
						OFFSET 0.000000 0.000000 0.000000 
					}
				}
			}
		}
	}
	JOINT RightUpLeg
	{
		OFFSET -1.305520 -1.794630 0.839290 
		CHANNELS 3 Zrotation Yrotation Xrotation
		JOINT RightLeg
		{
			OFFSET -2.542530 -6.985550 0.000000 
			CHANNELS 3 Zrotation Yrotation Xrotation
			JOINT RightFoot
			{
				OFFSET -2.568260 -7.056230 0.000000 
				CHANNELS 3 Zrotation Yrotation Xrotation
				JOINT RightToeBase
				{
					OFFSET -0.164730 -0.452590 2.363150 
					CHANNELS 3 Zrotation Yrotation Xrotation
					End Site
					{
						OFFSET 0.000000 0.000000 0.000000 
					}
				}
			}
		}
	}
	JOINT Spine
	{
		OFFSET 0.028270 2.035590 -0.193380 
		CHANNELS 3 Zrotation Yrotation Xrotation
		JOINT Spine1
		{
			OFFSET 0.056720 2.048850 -0.042750 
			CHANNELS 3 Zrotation Yrotation Xrotation
			JOINT Neck1
			{
				OFFSET -0.054170 1.746240 0.172020 
				CHANNELS 3 Zrotation Yrotation Xrotation
				JOINT Head
				{
					OFFSET 0.104070 1.761360 -0.123970 
					CHANNELS 3 Zrotation Yrotation Xrotation
					End Site
					{
						OFFSET 0.000000 0.000000 0.000000 
					}
				}
			}
			JOINT LeftArm
			{
				OFFSET 3.362410 1.200890 -0.311210 
				CHANNELS 3 Zrotation Yrotation Xrotation
				JOINT LeftForeArm
				{
					OFFSET 4.983000 -0.000000 -0.000000 
					CHANNELS 3 Zrotation Yrotation Xrotation
					JOINT LeftHand
					{
						OFFSET 3.483560 -0.000000 -0.000000 
						CHANNELS 3 Zrotation Yrotation Xrotation
						JOINT LeftHandIndex1
						{
							OFFSET 0.715260 -0.000000 -0.000000 
							CHANNELS 3 Zrotation Yrotation Xrotation
							End Site
							{
								OFFSET 0.000000 0.000000 0.000000 
							}
						}
					}
				}
			}
			JOINT RightArm
			{
				OFFSET -3.136600 1.374050 -0.404650 
				CHANNELS 3 Zrotation Yrotation Xrotation
				JOINT RightForeArm
				{
					OFFSET -5.241900 -0.000000 -0.000000 
					CHANNELS 3 Zrotation Yrotation Xrotation
					JOINT RightHand
					{
						OFFSET -3.444170 -0.000000 -0.000000 
						CHANNELS 3 Zrotation Yrotation Xrotation
						JOINT RightHandIndex1
						{
							OFFSET -0.622530 -0.000000 -0.000000 
							CHANNELS 3 Zrotation Yrotation Xrotation
							End Site
							{
								OFFSET 0.000000 0.000000 0.000000 
							}
						}
					}
				}
			}
		}
	}
}
MOTION
Frames: 10
Frame Time: 0.041667
-1.004984 18.165752 5.855821 -4.685867 -3.202664 1.342506 -9.826103 -6.707153 12.867415 -1.881823 -5.748755 -12.773201 -6.799182 25.320410 -2.517325 0.252900 -3.235700 -8.935600 -0.052526 2.692398 -5.693969 0.848996 0.063909 1.353998 0.195429 -4.196217 13.049593 0.000000 0.000000 0.000000 4.914402 0.241675 16.767999 -4.128241 0.643679 -9.535651 8.097725 -4.032282 23.472319 1.816600 -1.141300 8.757700 -94.808965 7.682309 20.866805 20.704167 -30.043758 -5.513279 0.730327 0.464481 5.021541 -7.125000 0.000000 0.000000 95.451726 -9.942602 18.752862 -29.527555 37.779773 -8.502411 1.241656 -2.504698 21.252961 7.125000 0.000000 0.000000 
-1.003383 18.166252 5.856321 -4.692379 -3.216872 1.356664 -9.831870 -6.715592 12.879501 -1.881579 -5.752800 -12.788331 -6.810146 25.362380 -2.510220 0.260000 -3.280500 -9.060800 -0.051692 2.692123 -5.694924 0.848971 0.063255 1.353795 0.195130 -4.196854 13.049331 0.000000 0.000000 0.000000 4.927308 0.247631 16.697658 -4.147886 0.641679 -9.549011 8.080611 -4.035548 23.539761 1.810900 -1.141600 8.773200 -94.874619 8.219078 20.955335 21.673201 -31.073059 -5.909938 0.704056 0.487835 4.979111 -7.125000 0.000000 0.000000 95.441416 -9.957013 18.764425 -29.486080 37.740290 -8.483451 1.235704 -2.506288 21.335023 7.125000 0.000000 0.000000 
-1.002283 18.166552 5.857622 -4.674591 -3.217179 1.365312 -9.852756 -6.717315 12.870580 -1.882726 -5.749368 -12.779424 -6.810333 25.362539 -2.511528 0.262200 -3.294200 -9.099000 -0.052062 2.692304 -5.694470 0.848978 0.063572 1.353932 0.195281 -4.196526 13.049441 0.000000 0.000000 0.000000 4.909544 0.250374 16.683754 -4.157195 0.640468 -9.540368 8.088246 -4.037427 23.511237 1.808300 -1.141500 8.761800 -94.710396 9.166658 21.913756 23.559193 -33.009329 -6.733635 0.652877 0.541676 4.095987 -7.125000 0.000000 0.000000 95.444349 -9.967880 18.772499 -29.474858 37.731157 -8.480426 1.233098 -2.506961 21.344049 7.125000 0.000000 0.000000 
-1.000182 18.166152 5.859123 -4.655437 -3.191670 1.367406 -9.878176 -6.766603 12.879066 -1.884641 -5.745582 -12.769673 -6.810717 25.358416 -2.546345 0.256800 -3.260300 -9.004300 -0.051593 2.691901 -5.695199 0.849023 0.062980 1.353690 0.195002 -4.197114 13.049184 0.000000 0.000000 0.000000 4.896000 0.247250 16.659631 -4.134874 0.641033 -9.541463 8.102552 -4.035972 23.462237 1.814200 -1.142200 8.745600 -94.790243 8.525150 21.328610 22.256624 -31.680178 -6.161324 0.690231 0.506664 4.604410 -7.125000 0.000000 0.000000 95.435066 -10.003284 18.761131 -29.481322 37.733991 -8.484451 1.236668 -2.507162 21.382832 7.125000 0.000000 0.000000 
-0.997781 18.165452 5.860223 -4.641671 -3.170994 1.345457 -9.908011 -6.835522 12.917161 -1.887638 -5.742903 -12.761903 -6.820625 25.383078 -2.608194 0.248600 -3.208500 -8.859700 -0.051551 2.692149 -5.694648 0.848915 0.063385 1.353800 0.195163 -4.196769 13.049449 0.000000 0.000000 0.000000 4.948433 0.219533 16.703551 -4.144419 0.629765 -9.548352 8.137652 -4.034790 23.476007 1.829700 -1.140300 8.756000 -94.766532 9.112179 21.682286 23.355000 -32.816086 -6.662946 0.672076 0.529856 4.130209 -7.125000 0.000000 0.000000 95.393110 -10.019790 18.820625 -29.484378 37.733043 -8.484235 1.239832 -2.505082 21.420632 7.125000 0.000000 0.000000 
-0.996680 18.164851 5.861224 -4.628594 -3.170376 1.331181 -9.928298 -6.845094 12.946080 -1.887889 -5.748055 -12.772101 -6.824658 25.394334 -2.640739 0.243100 -3.173100 -8.761100 -0.051353 2.691972 -5.694877 0.848923 0.063170 1.353679 0.195058 -4.197003 13.049378 0.000000 0.000000 0.000000 4.959784 0.225646 16.721641 -4.127973 0.636668 -9.565960 8.161089 -4.052380 23.479473 1.840300 -1.148300 8.764500 -94.854580 8.482384 21.173585 22.186185 -31.615158 -6.138035 0.697700 0.496223 4.677360 -7.125000 0.000000 0.000000 95.362659 -10.021690 18.880428 -29.462103 37.712720 -8.473849 1.239555 -2.505725 21.385012 7.125000 0.000000 0.000000 
-0.996180 18.164851 5.862724 -4.643405 -3.187005 1.336659 -9.916847 -6.794828 12.955340 -1.884397 -5.760196 -12.804563 -6.822970 25.400588 -2.593754 0.246800 -3.196700 -8.827000 -0.050759 2.691823 -5.695392 0.848884 0.062795 1.353558 0.194921 -4.197379 13.049257 0.000000 0.000000 0.000000 4.992157 0.252787 16.682379 -4.154137 0.647631 -9.579577 8.170265 -4.079596 23.462287 1.838000 -1.160300 8.759500 -94.749603 9.088628 21.726428 23.349303 -32.807332 -6.654354 0.671677 0.523881 4.206388 -7.125000 0.000000 0.000000 95.370369 -10.015816 18.881964 -29.424238 37.682398 -8.459346 1.234412 -2.507670 21.304007 7.125000 0.000000 0.000000 
-0.995580 18.164851 5.864625 -4.728234 -3.199931 1.356130 -9.846797 -6.782223 12.973395 -1.880007 -5.776698 -12.852254 -6.832455 25.438156 -2.584936 0.253800 -3.241400 -8.951500 -0.048121 2.691183 -5.697515 0.848661 0.061316 1.353013 0.194312 -4.198922 13.048863 0.000000 0.000000 0.000000 5.143361 0.250335 16.619868 -4.206117 0.645299 -9.580346 8.108356 -4.057317 23.455714 1.822500 -1.156000 8.753200 -94.750322 9.100166 21.732625 23.365844 -32.824041 -6.662943 0.672111 0.523705 4.180497 -7.125000 0.000000 0.000000 95.363989 -10.033249 18.900357 -29.412498 37.671664 -8.456991 1.232959 -2.509193 21.292666 7.125000 0.000000 0.000000 
-0.994379 18.164351 5.866026 -4.817044 -3.208289 1.376654 -9.771802 -6.783302 12.992958 -1.874667 -5.795973 -12.906641 -6.835920 25.452698 -2.600862 0.259300 -3.275900 -9.047800 -0.045942 2.690790 -5.699219 0.848447 0.060211 1.352638 0.193873 -4.200072 13.048591 0.000000 0.000000 0.000000 5.274348 0.234032 16.568365 -4.265252 0.633637 -9.572096 8.044810 -4.021101 23.459409 1.806900 -1.144400 8.748900 -94.765601 9.127541 21.687658 23.399166 -32.859173 -6.680576 0.672720 0.523509 4.155862 -7.125000 0.000000 0.000000 95.367926 -10.050768 18.902170 -29.412801 37.671352 -8.459067 1.238222 -2.509489 21.339976 7.125000 0.000000 0.000000 
-0.993379 18.164451 5.867027 -4.840482 -3.214616 1.400058 -9.750374 -6.739440 12.998589 -1.868949 -5.812657 -12.953905 -6.826811 25.438658 -2.544563 0.263400 -3.302000 -9.120700 -0.044431 2.690021 -5.701447 0.848494 0.058652 1.352136 0.193210 -4.201564 13.047898 0.000000 0.000000 0.000000 5.261797 0.257023 16.441463 -4.284224 0.638064 -9.591603 8.068715 -4.029411 23.498334 1.812500 -1.144500 8.751800 -94.794264 8.557149 21.255923 22.216553 -31.640780 -6.150332 0.699120 0.492934 4.634154 -7.125000 0.000000 0.000000 95.409212 -10.094522 18.836325 -29.415976 37.670912 -8.460655 1.239523 -2.510275 21.329402 7.125000 0.000000 0.000000 
